<svg width="20" height="18" viewBox="0 0 20 18" fill="none" xmlns="http://www.w3.org/2000/svg">
<path d="M19.7828 15.5021L11.4422 0.831225C10.8167 -0.259414 9.18332 -0.294596 8.55777 0.831225L0.217161 15.5021C-0.408385 16.5927 0.390924 18 1.67677 18H18.3232C19.6091 18 20.4084 16.6279 19.7828 15.5021ZM10.0174 12.4413C10.8862 12.4413 11.616 13.1801 11.616 14.0596C11.616 14.9744 10.8862 15.678 10.0174 15.678C9.11381 15.678 8.41876 14.9744 8.41876 14.0596C8.41876 13.1801 9.11381 12.4413 10.0174 12.4413ZM8.48827 6.63624C8.45351 6.38997 8.66203 6.17888 8.9053 6.17888H11.0947C11.338 6.17888 11.5465 6.38997 11.5117 6.63624L11.2685 11.421C11.2337 11.6673 11.06 11.808 10.8514 11.808H9.14856C8.94005 11.808 8.76628 11.6673 8.73153 11.421L8.48827 6.63624Z" fill="#FF0366"/>
</svg>
