<svg width="15" height="15" viewBox="0 0 15 15" fill="none" xmlns="http://www.w3.org/2000/svg">
<path d="M3.1875 6H4.0625C4.30859 6 4.5 5.78125 4.5 5.5625V2.5H13.25V11.25H9.3125C9.09375 11.25 8.875 11.4414 8.875 11.6875V12.5625C8.875 12.7812 9.09375 13 9.3125 13H13.6875C14.4258 13 15 12.3984 15 11.6875V2.0625C15 1.32422 14.4258 0.75 13.6875 0.75H4.0625C3.35156 0.75 2.75 1.32422 2.75 2.0625V5.5625C2.75 5.78125 2.96875 6 3.1875 6Z" fill="#04B800"/>
<path d="M5.52885 11.0541L10.619 5.96398C10.7201 5.86285 10.7201 5.6606 10.619 5.55947L9.6751 4.61561C9.55712 4.49762 9.37172 4.51448 9.27059 4.61561L4.18047 9.70572L3.3883 8.91355C3.03435 8.5596 2.41073 8.81242 2.41073 9.31806L2.42759 12.2339C2.41073 12.5542 2.66355 12.807 2.98379 12.7901L5.89965 12.807C6.40529 12.807 6.65811 12.1834 6.30416 11.8294L5.52885 11.0541Z" fill="#04B800"/>
</svg>
