<svg width="15" height="15" viewBox="0 0 15 15" fill="none" xmlns="http://www.w3.org/2000/svg">
<path d="M11.8125 9H10.9375C10.6914 9 10.5 9.21875 10.5 9.4375V12.5H1.75V3.75H5.6875C5.90625 3.75 6.125 3.55859 6.125 3.3125V2.4375C6.125 2.21875 5.90625 2 5.6875 2H1.3125C0.574219 2 0 2.60156 0 3.3125V12.9375C0 13.6758 0.574219 14.25 1.3125 14.25H10.9375C11.6484 14.25 12.25 13.6758 12.25 12.9375V9.4375C12.25 9.21875 12.0312 9 11.8125 9Z" fill="#FF0366"/>
<path d="M9.47115 3.9459L4.38104 9.03602C4.27991 9.13715 4.27991 9.3394 4.38104 9.44053L5.3249 10.3844C5.44288 10.5024 5.62828 10.4855 5.72941 10.3844L10.8195 5.29428L11.6117 6.08645C11.9656 6.4404 12.5893 6.18758 12.5893 5.68194L12.5724 2.76608C12.5893 2.44584 12.3364 2.19302 12.0162 2.20987L9.10035 2.19302C8.59471 2.19302 8.34189 2.81664 8.69584 3.17059L9.47115 3.9459Z" fill="#FF0366"/>
</svg>
