<svg width="14" height="13" viewBox="0 0 14 13" fill="none" xmlns="http://www.w3.org/2000/svg">
<path d="M12.4063 7.35162H11.4873C11.2288 7.35162 11.0278 7.58136 11.0278 7.81111V11.0275H1.83797V1.83772H5.97339C6.20313 1.83772 6.43288 1.63669 6.43288 1.37823V0.459247C6.43288 0.229502 6.20313 -0.000244141 5.97339 -0.000244141H1.37847C0.603082 -0.000244141 0 0.631556 0 1.37823V11.487C0 12.2624 0.603082 12.8655 1.37847 12.8655H11.4873C12.234 12.8655 12.8658 12.2624 12.8658 11.487V7.81111C12.8658 7.58136 12.636 7.35162 12.4063 7.35162Z" fill="#04004D"/>
<path d="M9.94726 2.04317L4.60128 7.38915C4.49507 7.49536 4.49507 7.70778 4.60128 7.81399L5.59259 8.8053C5.7165 8.92921 5.91122 8.91151 6.01744 8.8053L11.3634 3.45932L12.1954 4.29131C12.5671 4.66305 13.2221 4.39753 13.2221 3.86647L13.2044 0.804039C13.2221 0.467703 12.9566 0.202174 12.6202 0.219877L9.55782 0.202175C9.02676 0.202176 8.76123 0.857146 9.13297 1.22889L9.94726 2.04317Z" fill="#04004D"/>
</svg>
