<svg width="14" height="13" viewBox="0 0 14 13" fill="none" xmlns="http://www.w3.org/2000/svg">
<path d="M0.815901 5.64838H1.73488C1.99335 5.64838 2.19438 5.41864 2.19438 5.18889V1.97245H11.3842V11.1623H7.24878C7.01903 11.1623 6.78929 11.3633 6.78929 11.6218V12.5408C6.78929 12.7705 7.01903 13.0002 7.24878 13.0002H11.8437C12.6191 13.0002 13.2222 12.3684 13.2222 11.6218V1.51296C13.2222 0.737569 12.6191 0.134487 11.8437 0.134487H1.73488C0.98821 0.134487 0.356409 0.737569 0.356409 1.51296V5.18889C0.356409 5.41864 0.586155 5.64838 0.815901 5.64838Z" fill="#04004D"/>
<path d="M3.27491 10.9568L8.62088 5.61085C8.7271 5.50464 8.7271 5.29222 8.62089 5.18601L7.62958 4.1947C7.50567 4.07079 7.31094 4.08849 7.20473 4.1947L1.85876 9.54068L1.02677 8.70869C0.655028 8.33695 5.91278e-05 8.60247 5.81741e-05 9.13353L0.0177603 12.196C5.81741e-05 12.5323 0.265587 12.7978 0.601923 12.7801L3.66435 12.7978C4.19541 12.7978 4.46094 12.1429 4.0892 11.7711L3.27491 10.9568Z" fill="#04004D"/>
</svg>
